<svg xmlns="http://www.w3.org/2000/svg" width="69.667" height="69.667" viewBox="0 0 69.667 69.667">
  <path id="Path_1" data-name="Path 1" d="M35.833,20A15.833,15.833,0,1,0,51.667,35.833,15.839,15.839,0,0,0,35.833,20ZM4.167,39H10.5a3.167,3.167,0,1,0,0-6.333H4.167a3.167,3.167,0,1,0,0,6.333Zm57,0H67.5a3.167,3.167,0,1,0,0-6.333H61.167a3.167,3.167,0,1,0,0,6.333ZM32.667,4.167V10.5A3.167,3.167,0,1,0,39,10.5V4.167a3.167,3.167,0,1,0-6.333,0Zm0,57V67.5A3.167,3.167,0,1,0,39,67.5V61.167a3.167,3.167,0,1,0-6.333,0ZM16.8,12.337A3.157,3.157,0,0,0,12.337,16.8l3.357,3.357a3.157,3.157,0,0,0,4.465-4.465ZM55.973,51.508a3.157,3.157,0,0,0-4.465,4.465l3.357,3.357a3.157,3.157,0,0,0,4.465-4.465ZM59.33,16.8a3.157,3.157,0,1,0-4.465-4.465l-3.357,3.357a3.157,3.157,0,0,0,4.465,4.465ZM20.158,55.973a3.157,3.157,0,0,0-4.465-4.465l-3.357,3.357A3.157,3.157,0,0,0,16.8,59.33Z" transform="translate(-1 -1)"/>
</svg>
